<svg width="718" height="217" viewBox="0 0 718 217" fill="none" xmlns="http://www.w3.org/2000/svg">
<g clip-path="url(#clip0_1779_79)">
<path d="M188.492 146.313V175.105H224.554V146.313H229.209V211.651H224.554V178.982H188.492V211.651H183.838V146.313H188.492Z" fill="white"/>
<path d="M272.628 179.175H246.549V207.774H275.73V211.651H241.896V146.314H274.178V150.191H246.549V175.298H272.628V179.175Z" fill="white"/>
<mask id="mask0_1779_79" style="mask-type:luminance" maskUnits="userSpaceOnUse" x="-24" y="-27" width="772" height="264">
<path d="M-24 -26.9998H747.569V236.726H-24V-26.9998Z" fill="white"/>
</mask>
<g mask="url(#mask0_1779_79)">
<path d="M287.777 177.914H298.151C308.232 177.914 314.825 172.291 314.825 163.663C314.825 153.679 307.457 149.607 297.181 149.607C292.721 149.607 289.425 150.091 287.777 150.479V177.914ZM283.124 147.281C287.195 146.313 292.721 145.826 297.277 145.826C305.808 145.826 311.237 147.669 314.921 151.351C317.733 153.969 319.477 158.333 319.477 162.887C319.477 171.711 314.243 177.333 306.681 179.95V180.146C311.916 181.791 315.212 186.737 316.764 194.007C318.993 204.187 320.253 209.034 321.611 211.651H316.86C315.795 209.714 314.437 203.993 312.692 195.753C310.656 186.349 306.584 182.083 297.956 181.695H287.777V211.651H283.124V147.281Z" fill="white"/>
<path d="M334.241 207.773C336.859 208.161 340.64 208.257 344.808 208.257C365.748 208.257 376.121 196.528 376.121 177.625C376.315 161.047 367.105 149.703 346.068 149.703C341.027 149.703 337.052 150.189 334.241 150.771V207.773ZM329.588 147.281C334.629 146.409 340.155 145.825 346.359 145.825C358.284 145.825 367.299 149.025 372.728 154.745C377.963 160.175 380.872 167.541 380.872 177.429C380.872 187.028 378.255 195.656 372.34 202.151C366.621 208.453 356.732 212.135 344.129 212.135C339.088 212.135 334.339 212.039 329.588 211.555V147.281Z" fill="white"/>
<path d="M420.499 179.175H394.42V207.774H423.602V211.651H389.767V146.314H422.051V150.191H394.42V175.298H420.499V179.175Z" fill="white"/>
<path d="M435.65 177.914H446.022C456.106 177.914 462.697 172.291 462.697 163.663C462.697 153.679 455.33 149.607 445.054 149.607C440.594 149.607 437.298 150.091 435.65 150.479V177.914ZM430.997 147.281C435.067 146.313 440.594 145.826 445.15 145.826C453.681 145.826 459.111 147.669 462.794 151.351C465.606 153.969 467.35 158.333 467.35 162.887C467.35 171.711 462.117 177.333 454.554 179.95V180.146C459.789 181.791 463.085 186.737 464.637 194.007C466.866 204.187 468.126 209.034 469.483 211.651H464.733C463.667 209.714 462.309 203.993 460.565 195.753C458.529 186.349 454.457 182.083 445.83 181.695H435.65V211.651H430.997V147.281Z" fill="white"/>
<path d="M508.414 179.175H482.335V207.774H511.517V211.651H477.682V146.314H509.965V150.191H482.335V175.298H508.414V179.175Z" fill="white"/>
<path d="M532.387 211.651L515.131 146.313H519.88L529.382 183.151C531.515 191.583 533.55 199.438 534.81 205.545H535.004C536.07 199.438 538.398 191.682 541.015 183.151L551.679 146.313H556.136L565.832 182.859C567.966 190.81 570.098 198.954 571.163 205.545H571.359C572.811 198.466 574.944 191.391 577.272 183.053L588.032 146.313H592.783L573.199 211.651H568.742L558.95 174.037C556.332 164.441 554.78 158.042 553.908 151.935H553.714C552.647 157.946 550.806 164.441 547.898 174.037L536.748 211.651H532.387Z" fill="white"/>
<path d="M603.531 211.651H598.877V146.312H603.531V211.651Z" fill="white"/>
<path d="M661.163 209.326C657.868 210.974 651.567 212.623 643.52 212.623C627.717 212.623 612.595 202.539 612.595 179.37C612.595 159.979 625.1 145.244 645.748 145.244C654.087 145.244 658.933 147.086 660.873 148.154L659.417 152.031C656.124 150.383 651.373 149.219 645.847 149.219C628.201 149.219 617.441 160.659 617.441 179.466C617.441 197.206 627.524 208.646 645.072 208.646C650.597 208.646 656.024 207.484 659.805 205.64L661.163 209.326Z" fill="white"/>
<path d="M673.038 146.313V175.105H709.101V146.313H713.754V211.651H709.101V178.982H673.038V211.651H668.385V146.313H673.038Z" fill="white"/>
<path d="M31.622 124.026V110.721C31.622 110.611 31.6073 110.502 31.5806 110.398C31.5953 109.987 31.822 109.499 32.222 109.034C33.0526 108.062 34.446 107.374 35.69 107.326C36.8753 107.289 38.41 107.955 39.4246 108.977C39.866 109.419 40.166 109.89 40.274 110.297C40.2286 110.43 40.2046 110.573 40.2046 110.721V124.026C40.2046 124.586 40.5513 125.059 41.0406 125.258H30.786C31.2753 125.059 31.622 124.586 31.622 124.026ZM93.6073 94.4755C93.0686 94.4755 92.5153 94.5248 91.958 94.5755C91.4766 94.6195 90.9913 94.6635 90.514 94.6635C89.3806 94.6635 88.5246 94.4155 87.7646 93.1795C86.9273 91.8141 85.7273 90.7568 84.458 89.6368C83.8913 89.1381 83.298 88.6168 82.7046 88.0341C82.4926 87.8275 82.218 87.6968 81.9233 87.6621C81.842 87.6541 81.706 87.6528 81.6233 87.6608C81.478 87.6701 81.0033 87.6741 80.7793 87.6088C80.1473 87.4235 79.5126 87.3328 78.8966 87.3328C76.2166 87.3328 74.306 89.0008 72.6233 90.4701C71.826 91.1635 71.2993 92.0235 70.7886 92.8555C70.4806 93.3595 70.186 93.8381 69.8606 94.2315C69.746 94.2488 69.5193 94.2475 69.4233 94.2315C67.2673 92.2848 58.1153 84.5261 54.8966 81.8608C55.0873 81.4581 55.0633 80.9835 54.8313 80.5995C54.5886 80.2021 54.1566 79.9581 53.6913 79.9581C52.2273 79.9581 50.5833 79.9728 48.9233 79.9875C47.682 79.9995 46.4313 80.0101 45.242 80.0155C45.234 79.7915 45.2273 79.5581 45.2193 79.3328C45.1046 75.7968 45.03 73.4595 43.27 73.4595H43.2633C41.5366 73.2941 39.3593 73.2155 36.4086 73.2155C34.8233 73.2155 33.218 73.2368 31.7073 73.2568C30.3753 73.2755 29.1166 73.2941 28.01 73.2941C27.3446 73.2941 26.782 73.7835 26.69 74.4421C26.502 75.7821 26.4433 77.1488 26.398 78.2475C26.3753 78.7595 26.35 79.3541 26.3126 79.7728C25.3433 79.9168 23.3486 80.1048 20.7113 80.1181C19.5713 80.1248 18.4366 80.2048 17.3393 80.2808C16.838 80.3168 16.3366 80.3515 15.834 80.3795C15.3806 80.4061 14.97 80.6608 14.7473 81.0568C14.5526 81.4035 14.5233 81.8155 14.662 82.1821C11.9233 84.8421 2.17397 94.3315 1.00864 95.7208C0.620641 96.1848 0.592641 96.8501 0.939307 97.3435L1.02731 97.4688C1.91397 98.7275 1.98597 98.8301 1.68997 105.335V126.591C1.68997 127.329 2.28731 127.925 3.02331 127.925H92.9313V125.258H42.0353C42.5246 125.059 42.8713 124.586 42.8713 124.026V111.261C42.9353 111.111 42.9753 110.953 42.9833 110.783C43.0393 109.542 42.4473 108.231 41.3153 107.093C39.7646 105.537 37.522 104.582 35.5833 104.662C33.5833 104.741 31.5193 105.751 30.1953 107.301C29.2446 108.411 28.798 109.682 28.9393 110.878C28.9433 110.911 28.9486 110.947 28.9553 110.982V124.026C28.9553 124.586 29.302 125.059 29.7913 125.258H4.35664L4.3553 105.397C4.62464 99.4995 4.60864 98.2048 3.72197 96.7128C6.47931 93.8528 15.8686 84.7181 17.2233 83.4128C17.3646 83.2755 17.47 83.1141 17.5393 82.9395C18.638 82.8635 19.678 82.7915 20.726 82.7848C24.1833 82.7675 26.926 82.4635 27.7553 82.1848C28.9153 81.7915 28.9646 80.6448 29.062 78.3608C29.094 77.6088 29.1286 76.7888 29.202 75.9555C30.002 75.9488 30.8566 75.9368 31.7446 75.9235C33.2433 75.9035 34.8353 75.8821 36.4086 75.8821C38.85 75.8821 40.734 75.9355 42.3326 76.0528C42.4726 76.8995 42.526 78.5461 42.554 79.4181C42.5886 80.4728 42.6126 81.1408 42.6846 81.5728C42.7926 82.2155 43.3486 82.6848 44.0006 82.6848C45.5486 82.6848 47.2566 82.6701 48.9473 82.6541C49.9673 82.6448 50.9806 82.6368 51.95 82.6315C52.0286 82.8661 52.174 83.0808 52.3793 83.2461C54.298 84.7861 65.6646 94.4061 67.7513 96.3141C68.294 96.8088 69.0793 96.9141 69.642 96.9141C70.1566 96.9141 71.1086 96.8195 71.6873 96.1928C72.2446 95.5821 72.6606 94.9048 73.0633 94.2488C73.486 93.5595 73.886 92.9088 74.3753 92.4808C76.1593 90.9221 77.8446 89.5328 80.0353 90.1688C80.398 90.2755 80.8073 90.3315 81.2526 90.3381C81.742 90.7995 82.226 91.2261 82.694 91.6381C83.858 92.6648 84.8633 93.5515 85.4926 94.5755C87.0113 97.0448 89.086 97.3301 90.514 97.3301C91.0713 97.3301 91.6366 97.2808 92.1993 97.2315C92.674 97.1875 93.146 97.1421 93.6433 97.1421C97.098 97.1675 100.555 97.1741 104.01 97.1741H104.458V94.5075H104.01C100.561 94.5075 97.1113 94.5008 93.6073 94.4755Z" fill="white"/>
<path d="M713.519 86.2026L708.944 85.4293C708.593 81.64 708.779 77.7106 708.959 73.9066C709.291 66.8746 709.636 59.6013 706.732 52.5026C706.423 51.744 706.465 50.7026 706.511 49.6013C706.54 48.9053 706.569 48.1866 706.515 47.46C706.459 46.752 706.208 45.9826 705.765 45.172C705.389 44.492 704.964 43.8666 704.551 43.26L704.093 42.5773C703.801 42.136 703.519 41.6866 703.236 41.2386C702.539 40.132 701.817 38.988 700.953 37.9266C700.333 37.1693 699.572 36.6253 698.833 36.1013C698.82 36.0906 698.804 36.08 698.789 36.0693C698.843 35.7466 698.777 35.412 698.599 35.1293C698.352 34.7466 697.929 34.5146 697.475 34.5146H646.419V26.6946C646.419 25.9586 645.823 25.3613 645.085 25.3613H629.712L629.709 21.7493C629.704 18.1693 629.699 14.7293 629.719 11.2866L629.723 10.9026C629.739 9.60663 629.756 8.13462 628.784 7.15195C628.387 6.74929 627.883 6.49062 627.281 6.37729C627.279 5.97729 627.311 5.55862 627.339 5.16796C627.431 3.94262 627.544 2.41862 626.216 1.78795C625.491 1.44528 624.627 1.27862 623.579 1.27862C622.967 1.27862 622.357 1.33462 621.801 1.38796C621.42 1.42396 621.069 1.45996 620.776 1.45996C620.392 1.45996 620.028 1.62529 619.775 1.91329C619.521 2.20262 619.405 2.58529 619.455 2.96529C619.576 3.89862 619.433 4.66129 619.295 5.39595C619.24 5.68929 619.184 5.98929 619.145 6.29596C618.731 6.44529 618.384 6.67195 618.109 6.97328C617.324 7.83862 617.404 8.95729 617.463 9.77729C617.476 9.96529 617.491 10.1533 617.491 10.328C617.463 14.256 617.467 18.184 617.471 22.2746L617.472 25.452H539.688C539.129 25.452 538.629 25.8013 538.436 26.3266C537.765 28.1506 519.104 65.828 517.768 68.0666C517.684 68.1746 517.615 68.296 517.567 68.4306C516.476 71.4293 516.505 74.452 516.535 77.372C516.548 78.8693 516.564 80.3986 516.433 81.9546C515.657 81.0093 514.993 80.156 514.529 79.2573C514.389 78.992 514.417 78.3813 514.44 77.8426C514.468 77.256 514.496 76.5906 514.369 75.9266C514.212 75.1266 513.695 74.54 513.279 74.0666C513.149 73.9186 513.016 73.772 512.905 73.6186C512.661 73.2813 512.273 73.0773 511.859 73.0666C511.439 73.0386 511.045 73.2386 510.784 73.564C510.668 73.7106 510.528 73.8493 510.389 73.9906C509.937 74.4506 509.377 75.0226 509.199 75.836C509.039 76.5493 509.032 77.336 509.025 78.096C509.021 78.548 509.016 79.2026 508.952 79.5106C506.923 80.8613 506.88 82.6866 506.848 84.0306C506.836 84.5226 506.825 84.9893 506.752 85.2866C506.224 86.3666 501.897 89.9986 500.655 89.9986C491.86 89.968 472.88 89.9653 455.896 89.9626C444.484 89.9626 433.973 89.96 428.033 89.952C427.801 89.952 427.543 89.9573 427.272 89.9626C427 89.968 426.716 89.976 426.437 89.976C425.945 89.976 425.656 89.9533 425.491 89.9293C424.168 87.656 422.059 87.656 421.132 87.656C420.919 87.656 420.704 87.6613 420.489 87.6666C420.063 87.6773 419.633 87.6946 419.225 87.64C417.66 87.436 415.937 85.6213 415.936 84.172C415.932 82.5933 415.933 81.012 415.935 79.4533L415.936 77.1493C415.936 76.4133 415.339 75.816 414.603 75.816H409.564C408.863 75.816 408.281 76.3586 408.233 77.06L407.848 82.7906H360.493C360.499 82.5173 360.509 82.2386 360.519 81.9626C360.585 80.0253 360.653 78.02 359.436 76.812C358.199 75.5773 356.208 75.5226 354.281 75.468C353.552 75.448 352.799 75.4266 352.144 75.3413C351.783 75.292 351.409 75.3973 351.125 75.6306C350.84 75.864 350.664 76.2053 350.64 76.572C350.604 77.096 350.589 77.5666 350.575 77.9973C350.552 78.716 350.535 79.2653 350.436 79.716C350.427 79.7226 350.416 79.7293 350.407 79.7333C349.581 79.0306 348.877 78.2893 348.305 77.528C346.741 75.4333 344.969 73.0573 341.617 73.0573C341.173 73.0573 340.707 73.1013 340.231 73.1893C339.601 73.3066 338.704 73.288 337.811 73.2493C337.38 73.2293 336.948 73.2106 336.42 73.2106H336.412C334.608 73.2106 333.48 72.92 332.861 72.2973C332.213 71.6453 331.916 70.4266 331.927 68.46L331.928 66.184L331.927 64.7186C331.927 63.9813 331.329 63.3853 330.593 63.3853H290.808C290.809 63.1146 290.812 62.848 290.815 62.5866C290.827 61.0053 290.839 59.5093 290.776 58.02C290.767 57.756 290.767 57.464 290.767 57.1653C290.767 55.6786 290.767 53.996 289.639 53.156C288.504 52.312 288.475 51.4106 288.52 49.76C288.532 49.3386 288.543 48.9146 288.525 48.4973C288.441 46.3173 288.395 44.1373 288.348 41.9546C288.308 40.104 288.268 38.252 288.205 36.4C288.181 35.7026 288.029 35.0666 287.881 34.4533C287.823 34.212 287.764 33.968 287.716 33.7266C287.588 33.0693 286.999 32.6093 286.329 32.6506L285.424 32.7146C284.799 32.756 284.288 33.2293 284.195 33.848C284.152 34.1426 284.097 34.4373 284.043 34.7306C283.913 35.4346 283.779 36.1613 283.764 36.932C283.72 39.0746 283.692 41.2213 283.664 43.364C283.621 46.5973 283.577 49.8293 283.483 53.064C283.475 53.364 283.189 53.8733 282.936 54.3226C282.843 54.4893 282.751 54.6533 282.665 54.8133C282.584 54.968 282.419 55.1746 282.257 55.3746C281.851 55.8826 281.344 56.5146 281.288 57.364C281.175 59.1173 281.192 60.8453 281.211 62.676C281.213 62.9453 281.216 63.216 281.219 63.488H261.545C259.22 63.488 256.505 67.3226 250.864 76.0746C248.564 79.6413 245.436 84.4946 244.308 85.2093C232.815 85.1506 221.321 85.164 209.828 85.176C204.903 85.1826 199.976 85.188 195.051 85.188H193.148C191.471 85.188 189.9 87.216 186.787 91.4333C184.824 94.0906 181.657 98.3826 179.833 99.112C178.085 95.9026 172.187 85.492 169.787 85.388C166.549 85.2386 163.103 85.1733 158.612 85.1733C156.652 85.1733 154.691 85.184 152.731 85.1973C152.159 85.2 151.589 85.2013 151.019 85.2053V87.872C151.595 87.868 152.171 87.8666 152.747 87.864C154.701 87.8506 156.657 87.84 158.612 87.84C162.944 87.84 166.289 87.9 169.415 88.0413C171.079 89.3613 177.197 99.356 177.847 101.012C178.012 101.436 178.383 101.745 178.829 101.833C179.019 101.872 179.212 101.891 179.409 101.891C182.175 101.891 184.975 98.3773 188.932 93.0173C190.423 90.9973 192.453 88.2466 193.255 87.8546H195.051C199.977 87.8546 204.904 87.8493 209.831 87.8426C221.379 87.8306 232.92 87.8173 244.484 87.8773C246.269 87.8773 248.159 85.192 253.103 77.5226C255.744 73.424 260.165 66.5653 261.545 66.1546H282.559C283.296 66.1546 283.892 65.5573 283.892 64.8213C283.892 64.08 283.885 63.3573 283.877 62.6506C283.859 60.8706 283.841 59.1893 283.939 57.604C283.977 57.4946 284.195 57.224 284.339 57.044C284.565 56.76 284.824 56.4373 285.024 56.0573C285.099 55.916 285.18 55.7733 285.26 55.6293C285.665 54.9093 286.125 54.0933 286.148 53.1373C286.152 53.0106 286.156 52.8853 286.159 52.76C286.445 53.62 286.98 54.476 287.961 55.2306C288.1 55.576 288.1 56.6013 288.1 57.1653C288.1 57.5026 288.1 57.8306 288.112 58.1293C288.171 59.5546 288.16 61.0173 288.148 62.564C288.143 63.256 288.136 63.9706 288.136 64.7186C288.136 65.4533 288.733 66.052 289.469 66.052H329.261L329.26 68.4506C329.244 71.2066 329.772 72.9733 330.969 74.1773C332.123 75.3386 333.852 75.8773 336.515 75.8773C336.905 75.8773 337.297 75.896 337.691 75.9133C338.793 75.9613 339.865 75.9666 340.713 75.812C343.121 75.372 344.352 76.6893 346.171 79.1266C346.995 80.2266 348.035 81.2746 349.248 82.2333C349.485 82.4266 349.888 82.5586 350.195 82.5586C350.935 82.5586 352.573 81.848 352.923 80.7306C353.181 79.8973 353.209 79.064 353.24 78.1013C353.564 78.1173 353.888 78.124 354.207 78.1346C355.547 78.172 357.067 78.2146 357.556 78.7026C357.948 79.092 357.891 80.7653 357.853 81.872C357.827 82.652 357.799 83.4573 357.853 84.2213C357.905 84.9186 358.485 85.4573 359.184 85.4573H409.096C409.797 85.4573 410.38 84.9133 410.427 84.2133L410.811 78.4826H413.268V79.4506C413.267 81.0133 413.265 82.596 413.269 84.176C413.273 86.9426 416.001 89.9093 418.881 90.284C419.425 90.3533 419.989 90.3466 420.555 90.332C420.748 90.328 420.94 90.3226 421.132 90.3226C422.256 90.3226 422.805 90.4813 423.293 91.4733C423.872 92.6426 425.479 92.6426 426.437 92.6426C426.736 92.6426 427.041 92.6346 427.332 92.6293C427.581 92.6226 427.82 92.6186 428.057 92.6186C433.969 92.6266 444.483 92.6293 455.896 92.6293C472.876 92.632 491.852 92.6346 500.656 92.6653C503.265 92.6653 508.819 87.8426 509.296 86.0666C509.484 85.3746 509.5 84.6933 509.513 84.0933C509.544 82.8226 509.597 82.236 510.551 81.6533C511.668 80.968 511.68 79.5186 511.692 78.1186C511.697 77.5546 511.703 76.9733 511.771 76.56C511.815 76.8906 511.796 77.296 511.776 77.724C511.737 78.596 511.693 79.5853 512.161 80.488C512.843 81.7973 513.753 82.9 514.809 84.1786C515.26 84.7266 515.74 85.3066 516.239 85.9533C516.553 86.3586 517.076 86.5493 517.579 86.4386C518.083 86.328 518.477 85.9373 518.593 85.4346C519.252 82.5666 519.225 79.9133 519.201 77.348C519.173 74.54 519.148 71.888 520.073 69.3426L520.004 69.3173C521.113 67.6426 523.488 62.8533 530.269 49.1746C531.203 47.2893 538.712 32.132 540.557 28.1186H618.807C619.544 28.1186 620.14 27.5226 620.14 26.7853L620.137 22.272C620.133 18.1893 620.129 14.268 620.157 10.344C620.157 10.1026 620.141 9.84528 620.123 9.58528C620.101 9.30928 620.069 8.84663 620.035 8.80929C620.035 8.80929 620.148 8.74929 620.484 8.74395C620.863 8.73462 621.22 8.56529 621.467 8.27862C621.713 7.99196 621.825 7.61196 621.776 7.23596C621.729 6.87996 621.812 6.44262 621.916 5.88796C622.016 5.35596 622.131 4.74396 622.16 4.03196C623.029 3.95063 624.087 3.89596 624.727 4.07062C624.727 4.33062 624.7 4.69729 624.68 4.96929C624.613 5.85595 624.532 6.95995 624.809 8.00928C624.979 8.64795 625.595 9.06396 626.243 8.99596C626.651 8.95063 626.884 9.02529 626.888 9.02529C627.076 9.23062 627.063 10.2986 627.056 10.872L627.052 11.2733C627.032 14.72 627.037 18.1666 627.043 21.7546L627.047 26.6946C627.047 27.432 627.643 28.028 628.38 28.028H643.752V35.848C643.752 36.5853 644.348 37.1813 645.085 37.1813H696.003C696.087 37.3306 696.199 37.4613 696.336 37.572C696.643 37.8146 696.965 38.044 697.288 38.2746C697.911 38.7173 698.496 39.1346 698.887 39.612C699.647 40.5453 700.295 41.572 700.98 42.6613C701.272 43.124 701.565 43.5893 701.867 44.0466L702.347 44.76C702.743 45.3413 703.115 45.8906 703.427 46.4533C703.677 46.9146 703.831 47.3466 703.856 47.6666C703.899 48.232 703.873 48.844 703.847 49.492C703.792 50.8306 703.735 52.2146 704.264 53.5093C706.944 60.064 706.628 66.728 706.295 73.7813C706.105 77.7786 705.911 81.9106 706.32 85.9853C706.348 86.2706 706.429 86.4946 706.507 86.7106L706.612 87.0133C706.767 87.4866 707.168 87.8346 707.657 87.916L711.964 88.644V101.052H714.631V87.5173C714.631 86.8666 714.16 86.3106 713.519 86.2026Z" fill="white"/>
<path d="M32.2202 65.2887C33.0508 64.3167 34.4442 63.6301 35.8135 63.5781C37.0122 63.5781 38.5255 64.2861 39.4948 65.3021C39.6015 65.4141 39.7002 65.5287 39.7882 65.6434H31.9535C32.0308 65.5261 32.1202 65.4061 32.2202 65.2887ZM30.2628 68.3101H41.6508C42.3628 68.3101 42.9495 67.7501 42.9828 67.0381C43.0375 65.8407 42.4842 64.5714 41.4228 63.4607C39.9442 61.9114 37.7428 60.9114 35.8135 60.9114L35.5815 60.9167C33.5815 60.9954 31.5162 62.0074 30.1922 63.5567C29.2442 64.6687 28.7988 65.9367 28.9388 67.1327C29.0175 67.8047 29.5868 68.3101 30.2628 68.3101Z" fill="white"/>
<path d="M170.562 127.924H333.758V125.258H170.562V127.924Z" fill="white"/>
<path d="M344.72 97.5048H348.423V110.253H348.507C349.096 109.201 350.022 108.234 351.158 107.601C352.251 106.971 353.555 106.593 354.943 106.593C357.679 106.593 362.054 108.277 362.054 115.261V127.375H358.352V115.679C358.352 112.398 357.132 109.665 353.639 109.665C351.242 109.665 349.39 111.346 348.675 113.326C348.464 113.873 348.423 114.419 348.423 115.091V127.375H344.72V97.5048Z" fill="white"/>
<path d="M367.295 107.012H370.996V127.375H367.295V107.012ZM371.417 101.291C371.417 102.555 370.533 103.562 369.061 103.562C367.715 103.562 366.832 102.555 366.832 101.291C366.832 100.028 367.756 98.9763 369.144 98.9763C370.491 98.9763 371.417 99.987 371.417 101.291Z" fill="white"/>
<path d="M375.658 123.63C376.794 124.305 378.729 125.062 380.579 125.062C383.231 125.062 384.493 123.758 384.493 122.032C384.493 120.266 383.442 119.341 380.749 118.33C377.046 116.985 375.321 115.008 375.321 112.568C375.321 109.286 378.014 106.593 382.349 106.593C384.407 106.593 386.218 107.14 387.311 107.854L386.429 110.546C385.63 110.042 384.155 109.328 382.262 109.328C380.075 109.328 378.898 110.589 378.898 112.104C378.898 113.786 380.075 114.545 382.726 115.597C386.218 116.901 388.07 118.666 388.07 121.696C388.07 125.316 385.25 127.838 380.497 127.838C378.266 127.838 376.205 127.25 374.774 126.409L375.658 123.63Z" fill="white"/>
<path d="M397.017 102.132V107.012H402.319V109.834H397.017V120.812C397.017 123.336 397.731 124.768 399.793 124.768C400.804 124.768 401.392 124.683 401.939 124.516L402.108 127.334C401.392 127.586 400.257 127.839 398.825 127.839C397.1 127.839 395.712 127.25 394.828 126.282C393.82 125.146 393.397 123.336 393.397 120.94V109.834H390.243V107.012H393.397V103.226L397.017 102.132Z" fill="white"/>
<path d="M407.793 117.237C407.793 121.696 410.32 125.062 413.936 125.062C417.47 125.062 420.121 121.737 420.121 117.154C420.121 113.704 418.397 109.37 414.02 109.37C409.686 109.37 407.793 113.409 407.793 117.237ZM423.908 117.026C423.908 124.557 418.649 127.838 413.768 127.838C408.298 127.838 404.006 123.8 404.006 117.365C404.006 110.589 408.509 106.593 414.105 106.593C419.953 106.593 423.908 110.841 423.908 117.026Z" fill="white"/>
<path d="M428.084 113.367C428.084 110.969 428.041 108.906 427.916 107.013H431.156L431.324 111.053H431.449C432.374 108.318 434.648 106.593 437.129 106.593C437.508 106.593 437.802 106.635 438.14 106.677V110.17C437.76 110.086 437.382 110.086 436.877 110.086C434.268 110.086 432.417 112.021 431.913 114.797C431.828 115.302 431.785 115.933 431.785 116.521V127.375H428.084V113.367Z" fill="white"/>
<path d="M441.313 107.012H445.016V127.375H441.313V107.012ZM445.437 101.291C445.437 102.555 444.553 103.562 443.083 103.562C441.736 103.562 440.852 102.555 440.852 101.291C440.852 100.028 441.777 98.9763 443.165 98.9763C444.512 98.9763 445.437 99.987 445.437 101.291Z" fill="white"/>
<path d="M449.677 123.63C450.815 124.305 452.749 125.062 454.6 125.062C457.252 125.062 458.512 123.758 458.512 122.032C458.512 120.266 457.461 119.341 454.768 118.33C451.067 116.985 449.34 115.008 449.34 112.568C449.34 109.286 452.033 106.593 456.367 106.593C458.428 106.593 460.239 107.14 461.332 107.854L460.448 110.546C459.649 110.042 458.176 109.328 456.283 109.328C454.095 109.328 452.917 110.589 452.917 112.104C452.917 113.786 454.095 114.545 456.747 115.597C460.239 116.901 462.091 118.666 462.091 121.696C462.091 125.316 459.269 127.838 454.516 127.838C452.285 127.838 450.224 127.25 448.793 126.409L449.677 123.63Z" fill="white"/>
<path d="M480.895 126.662C479.925 127.123 477.78 127.839 475.045 127.839C468.903 127.839 464.907 123.675 464.907 117.448C464.907 111.18 469.197 106.594 475.845 106.594C478.033 106.594 479.968 107.14 480.977 107.687L480.137 110.506C479.255 110.042 477.865 109.536 475.845 109.536C471.176 109.536 468.649 113.028 468.649 117.238C468.649 121.948 471.68 124.852 475.719 124.852C477.823 124.852 479.211 124.347 480.263 123.883L480.895 126.662Z" fill="white"/>
<path d="M484.418 97.5048H488.121V110.253H488.205C488.793 109.201 489.72 108.234 490.856 107.601C491.949 106.971 493.254 106.593 494.642 106.593C497.377 106.593 501.752 108.277 501.752 115.261V127.375H498.05V115.679C498.05 112.398 496.83 109.665 493.337 109.665C490.94 109.665 489.088 111.346 488.373 113.326C488.164 113.873 488.121 114.419 488.121 115.091V127.375H484.418V97.5048Z" fill="white"/>
<path d="M520.241 115.219C520.282 112.904 519.273 109.243 515.108 109.243C511.322 109.243 509.722 112.651 509.429 115.219H520.241ZM509.386 117.867C509.47 122.875 512.626 124.935 516.372 124.935C519.021 124.935 520.662 124.471 522.009 123.883L522.681 126.534C521.377 127.123 519.105 127.839 515.866 127.839C509.597 127.839 505.853 123.675 505.853 117.531C505.853 111.388 509.47 106.594 515.402 106.594C522.093 106.594 523.818 112.399 523.818 116.143C523.818 116.902 523.774 117.448 523.692 117.867H509.386Z" fill="white"/>
<path d="M538.75 107.012L542.746 118.414C543.421 120.307 543.967 121.99 544.389 123.675H544.514C544.977 121.99 545.566 120.307 546.238 118.414L550.194 107.012H554.063L546.071 127.375H542.537L534.795 107.012H538.75Z" fill="white"/>
<path d="M569.424 115.219C569.465 112.904 568.454 109.243 564.29 109.243C560.505 109.243 558.905 112.651 558.612 115.219H569.424ZM558.568 117.867C558.653 122.875 561.808 124.935 565.553 124.935C568.202 124.935 569.844 124.471 571.19 123.883L571.864 126.534C570.56 127.123 568.288 127.839 565.049 127.839C558.778 127.839 555.034 123.675 555.034 117.531C555.034 111.388 558.653 106.594 564.585 106.594C571.276 106.594 573 112.399 573 116.143C573 116.902 572.957 117.448 572.874 117.867H558.568Z" fill="white"/>
<path d="M577.058 113.367C577.058 110.969 577.015 108.906 576.89 107.013H580.13L580.298 111.053H580.423C581.348 108.318 583.622 106.593 586.103 106.593C586.482 106.593 586.776 106.635 587.114 106.677V110.17C586.734 110.086 586.356 110.086 585.851 110.086C583.242 110.086 581.391 112.021 580.887 114.797C580.802 115.302 580.759 115.933 580.759 116.521V127.375H577.058V113.367Z" fill="white"/>
<path d="M602.991 115.219C603.033 112.904 602.022 109.243 597.857 109.243C594.071 109.243 592.471 112.651 592.178 115.219H602.991ZM592.134 117.867C592.221 122.875 595.374 124.935 599.119 124.935C601.77 124.935 603.41 124.471 604.757 123.883L605.431 126.534C604.127 127.123 601.854 127.839 598.614 127.839C592.346 127.839 588.601 123.675 588.601 117.531C588.601 111.388 592.221 106.594 598.153 106.594C604.842 106.594 606.567 112.399 606.567 116.143C606.567 116.902 606.525 117.448 606.441 117.867H592.134Z" fill="white"/>
<path d="M610.624 112.526C610.624 110.381 610.583 108.695 610.455 107.013H613.737L613.947 110.381H614.032C615.041 108.487 617.397 106.593 620.763 106.593C623.583 106.593 627.957 108.275 627.957 115.261V127.375H624.256V115.638C624.256 112.357 623.036 109.622 619.543 109.622C617.145 109.622 615.252 111.346 614.579 113.409C614.411 113.873 614.327 114.502 614.327 115.133V127.375H610.624V112.526Z" fill="white"/>
<path d="M633.199 107.012H636.899V127.375H633.199V107.012ZM637.322 101.291C637.322 102.555 636.439 103.562 634.966 103.562C633.619 103.562 632.736 102.555 632.736 101.291C632.736 100.028 633.66 98.9763 635.051 98.9763C636.398 98.9763 637.322 99.987 637.322 101.291Z" fill="white"/>
<path d="M656.199 115.05C656.199 114.419 656.155 113.873 655.989 113.41C655.314 111.222 653.549 109.454 650.814 109.454C647.278 109.454 644.754 112.441 644.754 117.154C644.754 121.149 646.817 124.471 650.77 124.471C653.085 124.471 655.147 123.042 655.902 120.689C656.114 120.058 656.199 119.342 656.199 118.711V115.05ZM659.899 124.389C659.899 129.102 658.934 131.919 656.999 133.73C654.978 135.539 652.115 136.17 649.551 136.17C647.111 136.17 644.418 135.581 642.778 134.487L643.702 131.626C645.049 132.509 647.153 133.266 649.675 133.266C653.462 133.266 656.241 131.29 656.241 126.115V123.883H656.155C655.061 125.777 652.833 127.293 649.675 127.293C644.629 127.293 641.009 123.001 641.009 117.365C641.009 110.465 645.511 106.594 650.223 106.594C653.759 106.594 655.653 108.402 656.577 110.086H656.661L656.787 107.013H660.069C659.942 108.443 659.899 110.129 659.899 112.569V124.389Z" fill="white"/>
<path d="M665.322 107.012H669.024V127.375H665.322V107.012ZM669.444 101.291C669.444 102.555 668.562 103.562 667.09 103.562C665.744 103.562 664.859 102.555 664.859 101.291C664.859 100.028 665.786 98.9763 667.174 98.9763C668.52 98.9763 669.444 99.987 669.444 101.291Z" fill="white"/>
<path d="M674.447 112.526C674.447 110.381 674.403 108.695 674.277 107.013H677.559L677.769 110.381H677.853C678.864 108.487 681.22 106.593 684.585 106.593C687.405 106.593 691.78 108.275 691.78 115.261V127.375H688.077V115.638C688.077 112.357 686.859 109.622 683.365 109.622C680.968 109.622 679.075 111.346 678.4 113.409C678.233 113.873 678.147 114.502 678.147 115.133V127.375H674.447V112.526Z" fill="white"/>
<path d="M710.997 115.05C710.997 114.419 710.955 113.873 710.786 113.41C710.114 111.222 708.346 109.454 705.611 109.454C702.078 109.454 699.554 112.441 699.554 117.154C699.554 121.149 701.614 124.471 705.57 124.471C707.885 124.471 709.945 123.042 710.702 120.689C710.914 120.058 710.997 119.342 710.997 118.711V115.05ZM714.699 124.389C714.699 129.102 713.731 131.919 711.797 133.73C709.778 135.539 706.915 136.17 704.349 136.17C701.909 136.17 699.215 135.581 697.575 134.487L698.502 131.626C699.849 132.509 701.95 133.266 704.475 133.266C708.262 133.266 711.038 131.29 711.038 126.115V123.883H710.955C709.861 125.777 707.633 127.293 704.475 127.293C699.426 127.293 695.809 123.001 695.809 117.365C695.809 110.465 700.309 106.594 705.023 106.594C708.557 106.594 710.45 108.402 711.374 110.086H711.461L711.585 107.013H714.866C714.742 108.443 714.699 110.129 714.699 112.569V124.389Z" fill="white"/>
<path d="M130.945 49.7457C133.298 50.2137 132.178 47.8017 136.122 49.7457C137.901 50.6244 140.203 51.147 141.771 50.8337C143.341 50.523 144.439 49.2644 145.538 50.9057C146.637 52.547 150.874 52.391 150.874 52.391C150.874 52.391 146.422 50.403 145.695 49.1217C144.811 47.567 143.654 47.723 141.771 48.3444C139.889 48.9684 138.074 49.2644 136.279 48.0337C133.669 46.2457 133.198 47.1044 130.945 45.547C128.539 43.8844 126.75 41.0884 126.75 41.0884L127.335 48.5017C127.335 48.5017 128.59 49.2804 130.945 49.7457Z" fill="white"/>
<path d="M167.907 115.612C167.879 115.691 167.859 115.771 167.847 115.855L167.751 116.445C167.719 116.636 167.728 116.831 167.779 117.019C168.615 120.079 169.679 125.016 169.434 126.375C169.256 126.979 167.57 129.529 166.082 131.779C164.195 134.631 161.847 138.18 159.995 141.489C159.32 142.836 158.63 144.136 157.924 145.385C158.474 143.823 159.092 142.145 159.774 140.419C162.716 132.972 164.879 125.175 164.9 125.096C165.096 124.385 164.68 123.651 163.97 123.456C163.259 123.26 162.526 123.677 162.33 124.388C162.308 124.464 160.184 132.125 157.294 139.44C154.511 146.484 152.767 152.697 152.41 154.005C150.479 153.024 146.118 150.984 141.464 149.987C139.682 149.607 136.955 150.245 134.07 150.919C131.566 151.508 128.727 152.169 127.34 151.877C124.047 151.18 120.844 150.505 118.163 149.953C108.188 147.899 103.523 150.289 100.738 151.716C99.2084 152.5 98.663 152.737 98.0684 152.464C95.5764 151.341 92.3137 139.333 93.5417 133.64C95.003 126.863 91.767 117.795 91.335 116.631L90.911 114.459C91.7417 114.297 93.291 114.188 94.7457 114.211L109.559 116.645L109.943 124.369C109.972 124.959 110.384 125.459 110.958 125.599C111.768 125.797 131.048 130.44 147.674 126.631C163.892 122.924 166.53 116.273 166.827 115.331L170.614 105.184L171.426 105.541L167.907 115.612ZM124.08 112.451C124.114 112.456 124.15 112.467 124.183 112.472L124.572 116.412L108.412 113.755C112.628 112.789 119.128 111.661 124.08 112.451ZM93.8337 59.624L150.191 79.856L149.73 79.9627C149.367 80.0467 149.056 80.2773 148.871 80.6C148.686 80.924 148.646 81.3093 148.758 81.664C148.796 81.788 152.696 94.3507 149.744 104.375C148.003 110.289 144.806 117.409 143.356 120.516C140.071 117.721 131.47 110.917 124.496 109.815C123.183 109.607 121.787 109.519 120.359 109.519C114.512 109.519 108.171 111.003 105.135 111.815C105.298 107.328 105.558 95.812 104.308 88.692C102.831 80.2733 96.4764 65.528 93.8337 59.624ZM125.428 125.093C119.384 124.585 114.534 123.648 112.556 123.224L112.25 117.088L124.843 119.159L125.428 125.093ZM133.15 120.527L133.615 125.435C131.699 125.443 129.832 125.383 128.035 125.279L127.468 119.591L133.15 120.527ZM173.627 103.596L170.394 102.176C170.058 102.028 169.676 102.025 169.339 102.168C169 102.312 168.736 102.588 168.608 102.932L164.278 114.552C164.26 114.609 162.336 120.544 147.079 124.031C143.562 124.836 139.886 125.237 136.288 125.377L135.707 119.251C135.65 118.648 135.194 118.159 134.596 118.06L127.194 116.844L126.828 113.183C134.234 115.803 142.81 123.576 142.906 123.664C143.154 123.891 143.475 124.013 143.806 124.013C143.888 124.013 143.971 124.005 144.054 123.989C144.467 123.912 144.819 123.643 145.003 123.265C145.204 122.855 149.95 113.12 152.303 105.129C154.916 96.2547 152.672 85.9427 151.695 82.2467L155.219 81.4373C155.796 81.3053 156.216 80.808 156.252 80.2187C156.287 79.6267 155.93 79.0827 155.372 78.8827L125.634 68.2066L124.228 40.0067L121.527 38.716L122.944 67.2413L91.895 56.0947C91.2017 55.8453 90.439 56.2053 90.1897 56.8987C90.1004 57.148 90.0897 57.4053 90.1444 57.6453C90.1417 57.8387 90.1817 58.0373 90.2684 58.224C90.3657 58.432 99.9044 79.0227 101.682 89.1533C102.984 96.5813 102.562 109.513 102.428 112.773L95.0817 111.565C95.019 111.555 94.955 111.549 94.891 111.547C89.3297 111.437 88.627 112.528 88.3617 112.937C88.0804 113.369 88.0164 113.88 88.1777 114.367L88.739 117.251C88.7537 117.323 88.775 117.399 88.8017 117.469C88.8377 117.563 92.3017 126.743 90.935 133.079C89.8577 138.073 91.883 149.339 95.3217 153.521C93.3177 153.807 90.7684 153.841 87.4884 153.295C84.4404 152.787 82.7417 152.068 81.3764 151.489C79.8404 150.839 78.5137 150.279 76.4164 150.628C75.183 150.833 74.5124 150.86 73.583 150.893C72.7537 150.924 71.7217 150.967 69.987 151.139C69.2537 151.211 68.719 151.864 68.7924 152.599C68.8657 153.331 69.5244 153.855 70.2524 153.792C71.9057 153.628 72.891 153.588 73.6844 153.56C74.6724 153.521 75.4537 153.492 76.8537 153.257C78.1897 153.033 78.9057 153.341 80.3364 153.945C81.7524 154.544 83.691 155.364 87.0497 155.924C89.0497 156.257 90.8137 156.396 92.371 156.396C96.4017 156.396 99.055 155.479 100.85 154.683C100.932 154.645 100.99 154.584 101.06 154.533C101.356 154.393 101.654 154.243 101.955 154.088C104.588 152.74 108.568 150.695 117.626 152.565C120.3 153.117 123.499 153.789 126.787 154.487C128.752 154.901 131.632 154.232 134.679 153.516C137.035 152.964 139.708 152.341 140.906 152.593C146.624 153.82 152.094 156.849 152.148 156.88C152.352 156.995 152.576 157.049 152.796 157.049C153.264 157.049 153.718 156.803 153.962 156.364C154.044 156.219 154.087 156.06 154.11 155.904C154.711 155.536 155.58 154.188 157.994 150.435C158 150.424 158.007 150.415 158.014 150.404C159.51 148.079 160.978 145.481 162.351 142.74C164.126 139.568 166.443 136.065 168.306 133.251C170.947 129.257 171.886 127.781 172.048 126.888C172.475 124.539 170.912 118.404 170.428 116.596L174.35 105.257C174.579 104.6 174.266 103.877 173.627 103.596Z" fill="white"/>
</g>
</g>
<defs>
<clipPath id="clip0_1779_79">
<rect width="718" height="217" fill="white"/>
</clipPath>
</defs>
</svg>
